<svg id="Layer_1" data-name="Layer 1" xmlns="http://www.w3.org/2000/svg" viewBox="0 0 500 500"><defs><style>.cls-1{fill:#f68c44;}</style></defs><path class="cls-1" d="M250,298.94a63.35,63.35,0,1,0-63.35-63.35A63.35,63.35,0,0,0,250,298.94"/><path class="cls-1" d="M250,301.37a65.79,65.79,0,1,1,65.79-65.78A65.86,65.86,0,0,1,250,301.37Zm0-126.7a60.92,60.92,0,1,0,60.91,60.92A61,61,0,0,0,250,174.67Z"/><path class="cls-1" d="M250,411.64a63.42,63.42,0,0,1-63.35-63.35,6.56,6.56,0,0,1,13.11,0A50.24,50.24,0,1,0,250,298.05a6.56,6.56,0,0,1,0-13.11,63.35,63.35,0,1,1,0,126.7Z"/><path class="cls-1" d="M250,414.14a65.92,65.92,0,0,1-65.85-65.85,9.06,9.06,0,0,1,18.11,0A47.74,47.74,0,1,0,250,300.55a9.06,9.06,0,0,1,0-18.11,65.85,65.85,0,1,1,0,131.7Zm-56.8-69.9a4.05,4.05,0,0,0-4,4.05A60.85,60.85,0,1,0,250,287.44a4.06,4.06,0,0,0,0,8.11,52.74,52.74,0,1,1-52.74,52.74A4.05,4.05,0,0,0,193.2,344.24Z"/><path class="cls-1" d="M250,158.12a7.31,7.31,0,0,1-7.31-7.31V95.67a7.31,7.31,0,0,1,14.62,0v55.14A7.31,7.31,0,0,1,250,158.12Z"/><path class="cls-1" d="M250,160.62a9.82,9.82,0,0,1-9.81-9.81V95.67a9.81,9.81,0,0,1,19.62,0v55.14A9.82,9.82,0,0,1,250,160.62Zm0-69.76a4.82,4.82,0,0,0-4.81,4.81v55.14a4.81,4.81,0,0,0,9.62,0V95.67A4.82,4.82,0,0,0,250,90.86Z"/><path class="cls-1" d="M250,371.14a7.31,7.31,0,0,1-7.31-7.31V299.56a7.31,7.31,0,1,1,14.62,0v64.27A7.31,7.31,0,0,1,250,371.14Z"/><path class="cls-1" d="M250,373.64a9.82,9.82,0,0,1-9.81-9.81V299.56a9.81,9.81,0,1,1,19.62,0v64.27A9.82,9.82,0,0,1,250,373.64Zm0-78.89a4.82,4.82,0,0,0-4.81,4.81v64.27a4.81,4.81,0,1,0,9.62,0V299.56A4.82,4.82,0,0,0,250,294.75Z"/><path class="cls-1" d="M189,181.34a7.24,7.24,0,0,1-5.16-2.14l-39-39a7.31,7.31,0,0,1,10.34-10.34l39,39A7.31,7.31,0,0,1,189,181.34Z"/><path class="cls-1" d="M189,183.84a9.76,9.76,0,0,1-6.94-2.87l-39-39A9.81,9.81,0,0,1,157,128.11l39,39A9.81,9.81,0,0,1,189,183.84Zm-39-53.61a4.81,4.81,0,0,0-3.4,8.21l39,39a4.94,4.94,0,0,0,6.81,0,4.8,4.8,0,0,0,0-6.8l-39-39A4.79,4.79,0,0,0,150,130.23Z"/><path class="cls-1" d="M311,184.93a7.31,7.31,0,0,1-5.16-12.48l39-39a7.31,7.31,0,1,1,10.34,10.33l-39,39A7.33,7.33,0,0,1,311,184.93Z"/><path class="cls-1" d="M311,187.43A9.81,9.81,0,0,1,304,170.68l39-39a9.82,9.82,0,0,1,16.75,6.94,9.7,9.7,0,0,1-2.88,6.93l-39,39A9.73,9.73,0,0,1,311,187.43Zm39-53.61a4.82,4.82,0,0,0-3.4,1.4l-39,39a4.8,4.8,0,0,0,0,6.8,4.92,4.92,0,0,0,6.8,0l39-39a4.81,4.81,0,0,0-3.4-8.21Z"/></svg>