<svg id="Layer_1" data-name="Layer 1" xmlns="http://www.w3.org/2000/svg" viewBox="0 0 219.56 328.28"><defs><style>.cls-1{fill:#f68c44;}</style></defs><path class="cls-1" d="M109.78,213.08a63.35,63.35,0,1,0-63.35-63.35,63.35,63.35,0,0,0,63.35,63.35"/><path class="cls-1" d="M109.78,215.51a65.79,65.79,0,1,1,65.78-65.78A65.86,65.86,0,0,1,109.78,215.51Zm0-126.7a60.92,60.92,0,1,0,60.91,60.92A61,61,0,0,0,109.78,88.81Z"/><path class="cls-1" d="M109.78,325.78a63.42,63.42,0,0,1-63.35-63.35,6.55,6.55,0,0,1,13.1,0,50.25,50.25,0,1,0,50.25-50.24,6.56,6.56,0,1,1,0-13.11,63.35,63.35,0,0,1,0,126.7Z"/><path class="cls-1" d="M109.78,328.28a65.92,65.92,0,0,1-65.85-65.85,9,9,0,1,1,18.1,0,47.75,47.75,0,1,0,47.75-47.74,9.06,9.06,0,0,1,0-18.11,65.85,65.85,0,0,1,0,131.7ZM53,258.38a4.05,4.05,0,0,0-4,4.05,60.85,60.85,0,1,0,60.85-60.85,4.06,4.06,0,1,0,0,8.11A52.74,52.74,0,1,1,57,262.43,4.05,4.05,0,0,0,53,258.38Z"/><path class="cls-1" d="M109.78,72.26A7.31,7.31,0,0,1,102.47,65V9.81a7.31,7.31,0,0,1,14.62,0V65A7.31,7.31,0,0,1,109.78,72.26Z"/><path class="cls-1" d="M109.78,74.76A9.82,9.82,0,0,1,100,65V9.81a9.81,9.81,0,0,1,19.62,0V65A9.82,9.82,0,0,1,109.78,74.76Zm0-69.76A4.82,4.82,0,0,0,105,9.81V65a4.81,4.81,0,1,0,9.62,0V9.81A4.82,4.82,0,0,0,109.78,5Z"/><path class="cls-1" d="M109.78,285.28a7.31,7.31,0,0,1-7.31-7.31V213.7a7.31,7.31,0,0,1,14.62,0V278A7.31,7.31,0,0,1,109.78,285.28Z"/><path class="cls-1" d="M109.78,287.78A9.82,9.82,0,0,1,100,278V213.7a9.81,9.81,0,0,1,19.62,0V278A9.82,9.82,0,0,1,109.78,287.78Zm0-78.89A4.82,4.82,0,0,0,105,213.7V278a4.81,4.81,0,0,0,9.62,0V213.7A4.82,4.82,0,0,0,109.78,208.89Z"/><path class="cls-1" d="M48.8,95.48a7.28,7.28,0,0,1-5.17-2.14l-39-39A7.31,7.31,0,0,1,15,44L54,83A7.31,7.31,0,0,1,48.8,95.48Z"/><path class="cls-1" d="M48.8,98a9.73,9.73,0,0,1-6.93-2.87l-39-39A9.81,9.81,0,0,1,16.74,42.25l39,39A9.81,9.81,0,0,1,48.8,98Zm-39-53.61a4.81,4.81,0,0,0-3.4,8.21l39,39a4.93,4.93,0,0,0,6.8,0,4.8,4.8,0,0,0,0-6.8l-39-39A4.79,4.79,0,0,0,9.81,44.37Z"/><path class="cls-1" d="M170.75,99.07a7.31,7.31,0,0,1-5.17-12.48l39-39a7.31,7.31,0,0,1,10.34,10.33l-39,39A7.33,7.33,0,0,1,170.75,99.07Z"/><path class="cls-1" d="M170.75,101.57a9.81,9.81,0,0,1-6.93-16.75l39-39A9.81,9.81,0,1,1,216.68,59.7l-39,39A9.74,9.74,0,0,1,170.75,101.57Zm39-53.61a4.81,4.81,0,0,0-3.4,1.4l-39,39a4.8,4.8,0,0,0,0,6.8,4.92,4.92,0,0,0,6.8,0l39-39a4.81,4.81,0,0,0-3.4-8.21Z"/></svg>